<svg xmlns="http://www.w3.org/2000/svg" viewBox="0 0 75.241 26.816">
  <defs>
    <style>
      .cls-1 {
        fill: #fff;
      }
    </style>
  </defs>
  <path id="Path_5" data-name="Path 5" class="cls-1" d="M133.967,3268.2a9.192,9.192,0,0,1-5.511-1.842,10.968,10.968,0,0,1-1.145-1.145,7.173,7.173,0,0,1-1.24-2.233c-.812-2.431-.394-5.621,1.194-9.122,1.36-3,3.459-5.969,7.121-10.085.539-.606,2.145-2.378,2.155-2.378s-.083.151-.193.337a21.581,21.581,0,0,0-2.211,5.1,9.143,9.143,0,0,0,.252,6.584,6.432,6.432,0,0,0,2.814,2.805c2.046,1,5.041,1.086,8.7.243.252-.058,12.731-3.371,27.731-7.361s27.275-7.254,27.276-7.251-34.849,14.918-52.942,22.654c-2.865,1.226-3.632,1.535-4.978,2.008A25.254,25.254,0,0,1,133.967,3268.2Z" transform="translate(-125.667 -3241.399)"/>
</svg>
