<svg xmlns="http://www.w3.org/2000/svg" viewBox="0 0 75.241 26.816"><path d="M133.967,39.166a9.191,9.191,0,0,1-5.511-1.842,10.965,10.965,0,0,1-1.145-1.146,7.158,7.158,0,0,1-1.24-2.232c-.812-2.431-.394-5.621,1.194-9.122,1.36-3,3.459-5.969,7.121-10.086.539-.6,2.145-2.377,2.155-2.377s-.083.151-.193.336a21.588,21.588,0,0,0-2.211,5.1,9.143,9.143,0,0,0,.252,6.584,6.431,6.431,0,0,0,2.814,2.805c2.046,1,5.041,1.086,8.7.243.252-.058,12.731-3.371,27.731-7.361s27.275-7.254,27.276-7.251-34.849,14.917-52.942,22.654c-2.865,1.225-3.632,1.535-4.978,2.007A25.233,25.233,0,0,1,133.967,39.166Z" transform="translate(-125.667 -12.361)"/></svg>